<svg width="416" height="119" viewBox="0 0 416 119" fill="none" xmlns="http://www.w3.org/2000/svg">
<g clip-path="url(#clip0_3_22)">
<path d="M74.2187 89.213C73.5457 89.213 73 88.6673 73 87.9943V33.2188C73 32.5457 73.5457 32 74.2187 32H89.146C94.996 32 100.056 32.9945 104.327 34.9835C108.597 36.9725 111.903 40.073 114.243 44.285C116.641 48.4385 117.84 53.7912 117.84 60.3432C117.84 66.8952 116.67 72.3065 114.33 76.577C111.99 80.8475 108.714 84.0358 104.502 86.1418C100.349 88.1893 95.464 89.213 89.848 89.213H74.2187ZM85.8993 77.552C85.8993 78.2251 86.4449 78.7707 87.118 78.7707H88.3563C91.6323 78.7707 94.4695 78.1858 96.868 77.0158C99.325 75.8458 101.226 73.9152 102.572 71.2242C103.917 68.5332 104.59 64.9062 104.59 60.3432C104.59 55.7802 103.917 52.2117 102.572 49.6377C101.226 47.0052 99.325 45.1625 96.868 44.1095C94.4695 42.998 91.6323 42.4422 88.3563 42.4422H87.118C86.4449 42.4422 85.8993 42.9879 85.8993 43.661V77.552Z" fill="#0A0F25"/>
<path d="M126.409 89.213C125.736 89.213 125.191 88.6673 125.191 87.9943V82.365C125.191 82.031 125.328 81.7116 125.57 81.4814C130.153 77.1203 134.209 73.1747 137.739 69.6448C141.424 65.9593 144.291 62.5955 146.338 59.5535C148.386 56.453 149.41 53.5865 149.41 50.954C149.41 48.2045 148.678 46.1277 147.216 44.7237C145.812 43.2612 143.911 42.53 141.512 42.53C139.523 42.53 137.71 43.115 136.072 44.285C134.816 45.1689 133.615 46.1822 132.47 47.3251C131.982 47.8119 131.19 47.8323 130.7 47.3481L125.423 42.137C124.952 41.6723 124.937 40.9154 125.403 40.4462C127.888 37.9452 130.42 36.0365 133 34.7202C135.867 33.1992 139.289 32.4387 143.267 32.4387C146.953 32.4387 150.17 33.17 152.92 34.6325C155.669 36.095 157.804 38.1717 159.325 40.8627C160.905 43.4952 161.695 46.5957 161.695 50.1642C161.695 53.2647 160.817 56.453 159.062 59.729C157.366 62.9465 155.172 66.1932 152.481 69.4692C149.79 72.6867 146.923 75.875 143.881 79.034C145.285 78.8585 146.865 78.7123 148.62 78.5953C150.375 78.4198 151.896 78.332 153.183 78.332H163.196C163.869 78.332 164.415 78.8777 164.415 79.5507V87.9943C164.415 88.6673 163.869 89.213 163.196 89.213H126.409Z" fill="#0A0F25"/>
<path fill-rule="evenodd" clip-rule="evenodd" d="M40.5718 83.8158C40.5718 86.3741 40.5718 87.6533 39.6615 88.3965C38.7512 89.1397 37.5897 88.9026 35.2666 88.4282C27.1711 86.7753 19.4539 82.8089 13.1742 76.5291C7.07442 70.4294 3.15734 62.9735 1.42294 55.132C0.90415 52.7865 0.644755 51.6137 1.3883 50.6877C2.13184 49.7617 3.42796 49.7617 6.0202 49.7617H35.6186C37.9536 49.7617 39.1211 49.7617 39.8465 50.4871C40.5718 51.2125 40.5718 52.38 40.5718 54.715V83.8158Z" fill="#476CEF"/>
<path fill-rule="evenodd" clip-rule="evenodd" d="M52.9077 70.7915C55.2308 71.2658 56.3923 71.503 57.3026 70.7598C58.2129 70.0165 58.213 68.7374 58.213 66.179V37.0783C58.213 34.7433 58.213 33.5758 57.4876 32.8504C56.7622 32.125 55.5947 32.125 53.2597 32.125H23.6613C21.0691 32.125 19.7729 32.125 19.0294 33.051C18.2859 33.977 18.5452 35.1497 19.064 37.4953C20.7984 45.3368 24.7155 52.7927 30.8153 58.8924C37.0951 65.1722 44.8122 69.1386 52.9077 70.7915Z" fill="#94ABFF"/>
<path fill-rule="evenodd" clip-rule="evenodd" d="M40.5698 66.2456V54.715C40.5698 52.38 40.5698 51.2125 39.8444 50.4871C39.119 49.7617 37.9515 49.7617 35.6165 49.7617H23.8125C25.6894 53.0268 28.023 56.101 30.8134 58.8914C33.7817 61.8597 37.0711 64.3111 40.5698 66.2456Z" fill="#234CDA"/>
</g>
<path d="M233.659 84.4261V41.3011H240.977V84.4261H233.659ZM215.756 66.5227V59.2045H258.881V66.5227H215.756Z" fill="black"/>
<path d="M366.01 22.4961L319.135 69.9291L365.731 116.525L412.606 69.3711L366.01 22.4961Z" fill="#19953F" stroke="black"/>
<path d="M326.251 27.0315L324.298 28.9846V36.5181L326.426 38.5758L329.251 38.6456L329.32 104.319L332.111 107.11H340.76L409.957 36.7971V29.5426L408.003 27.5895L376.753 27.3105L374.8 30.1007V36.239L376.753 38.7502H379.265L354.99 62.1877L355.234 38.8549H358.024L360.291 36.5181V30.3797L357.78 27.5895L326.251 27.0315Z" fill="#D0D0CF" stroke="black"/>
<path d="M369.48 72.4717L371.154 71.0766L375.897 71.2161L377.432 72.7507L375.758 77.494L374.363 78.7496L369.422 78.6918L368.085 77.0755L369.48 72.4717V72.4717Z" fill="#D0D0CF" stroke="black"/>
<path d="M363.62 81.4003L374.781 81.5398L368.922 99.1179H371.014L369.759 102.606L359.296 102.466L365.016 85.5856L362.225 85.7251L363.62 81.4003Z" fill="#D0D0CF" stroke="black"/>
<path d="M377.432 81.5398L375.979 85.3235H378.647L372.688 102.606H381.896L383.226 99.1996L380.838 99.0432L384.128 88.7943L389.988 88.6547L385.663 102.327L394.707 102.466L395.846 99.2405L393.673 99.1767L397.242 88.7943H402.264L397.94 102.466L407.443 102.565L408.617 99.3332L406.345 99.2574L410.914 84.7485L409.1 81.8188H403.38L401.148 84.051H398.916L396.545 81.6793H391.662L389.569 83.7719H387.197L384.826 81.5398H377.432V81.5398Z" fill="#D0D0CF" stroke="black"/>
<defs>
<clipPath id="clip0_3_22">
<rect width="165" height="58" fill="white" transform="translate(0 32)"/>
</clipPath>
</defs>
</svg>
